<svg width="16" height="20" viewBox="0 0 16 20" fill="none" xmlns="http://www.w3.org/2000/svg">
<path fill-rule="evenodd" clip-rule="evenodd" d="M7.56215 19.3143C7.95734 19.3143 15.0186 11.7697 15.0186 7.65163C15.0186 3.53355 11.6802 0.19519 7.56215 0.19519C3.44407 0.19519 0.105713 3.53355 0.105713 7.65163C0.105713 11.7697 7.16697 19.3143 7.56215 19.3143ZM7.56216 11.3811C9.65003 11.3811 11.3426 9.68851 11.3426 7.60064C11.3426 5.51277 9.65003 3.82022 7.56216 3.82022C5.4743 3.82022 3.78175 5.51277 3.78175 7.60064C3.78175 9.68851 5.4743 11.3811 7.56216 11.3811Z" fill="#1DAEEF"/>
<path fill-rule="evenodd" clip-rule="evenodd" d="M0.105713 7.65163C0.105713 11.7697 7.16697 19.3143 7.56215 19.3143L7.56215 11.3811C5.47429 11.381 3.78175 9.6885 3.78175 7.60064C3.78175 5.51278 5.47429 3.82023 7.56215 3.82022L7.56215 0.19519C3.44407 0.19519 0.105713 3.53355 0.105713 7.65163Z" fill="#3EC3FF"/>
</svg>
