<svg width="18" height="18" viewBox="0 0 18 18" fill="none" xmlns="http://www.w3.org/2000/svg">
<g clip-path="url(#clip0)">
<path d="M16.6366 0.91122C16.2133 0.487913 15.6505 0.254761 15.0519 0.254761C14.4532 0.254761 13.8904 0.487913 13.4671 0.91122C13.4134 0.964876 13.362 1.02179 13.3142 1.08032L10.4809 4.55131L7.68904 4.55134C7.02391 4.55134 6.39856 4.81036 5.92824 5.28068L5.57599 5.6329L8.04115 10.9154L16.6366 2.31993V0.91122Z" fill="#3EC3FF"/>
<path d="M6.63214 17.2548L10.5063 13.3806C10.5063 13.3806 6.63214 17.2548 6.63214 17.2548Z" fill="black"/>
<path d="M7.33679 10.2111L11.915 11.9719L12.2672 11.6197C12.7375 11.1493 12.9965 10.524 12.9965 9.85884V7.06695L16.4676 4.23353C16.5263 4.18565 16.5831 4.13425 16.6366 4.08073C17.0599 3.65742 17.293 3.0946 17.293 2.49595C17.293 1.89733 17.0599 1.3345 16.6366 0.911194L7.33679 10.2111Z" fill="#09A1E5"/>
<path d="M4.16733 7.04158L7.33683 13.0284L8.74551 8.80238L5.57601 5.63287L4.1673 7.04155L4.16733 7.04158Z" fill="#DFF5FF"/>
<path d="M5.9281 11.6198L10.5063 13.3805L11.915 11.9719L8.74549 8.80237L5.9281 11.6198Z" fill="#BFEBFF"/>
<path d="M8.92157 11.7958L5.92797 12.6764L5.04742 15.67L6.63218 17.2547L10.5063 13.3805L8.92157 11.7958Z" fill="#FF7169"/>
<path d="M7.33676 10.2111L4.34317 11.0916L3.46259 14.0853L5.04737 15.67L8.92151 11.7958L7.33676 10.2111Z" fill="#FF9259"/>
<path d="M5.75204 8.62628L2.75845 9.50686L1.87787 12.5005L3.46265 14.0852L7.33679 10.211L5.75204 8.62628Z" fill="#FFB24A"/>
<path d="M0.292175 10.9149L4.16577 7.04126L5.7503 8.6258L1.87671 12.4994L0.292175 10.9149Z" fill="#FFD23B"/>
</g>
<defs>
<clipPath id="clip0">
<rect width="17" height="17" fill="white" transform="translate(0.293091 0.254761)"/>
</clipPath>
</defs>
</svg>
